<?xml version="1.0" standalone="no"?>
<!DOCTYPE svg PUBLIC "-//W3C//DTD SVG 20010904//EN"
 "http://www.w3.org/TR/2001/REC-SVG-20010904/DTD/svg10.dtd">
<svg version="1.0" xmlns="http://www.w3.org/2000/svg"
 width="1026.000000pt" height="1026.000000pt" viewBox="0 0 1026.000000 1026.000000"
 preserveAspectRatio="xMidYMid meet">

<g transform="translate(0.000000,1026.000000) scale(0.100000,-0.100000)"
fill="#000000" stroke="none">
<path d="M4050 10238 c0 -62 27 -196 62 -308 42 -134 179 -401 218 -425 4 -3
93 5 196 16 283 33 728 33 987 1 104 -13 200 -27 214 -33 14 -5 28 -8 30 -5 4
4 -169 79 -282 121 -182 69 -399 122 -603 149 -68 9 -139 26 -188 45 -166 64
-344 209 -507 414 -35 43 -42 47 -83 47 -39 0 -44 -3 -44 -22z"/>
<path d="M2928 10060 c-22 -257 44 -553 172 -763 19 -32 41 -69 48 -82 20 -39
131 -149 267 -264 128 -110 388 -227 755 -340 74 -23 203 -64 285 -91 83 -27
197 -64 255 -81 259 -78 504 -159 718 -238 86 -32 265 -118 317 -154 46 -31
133 -117 166 -164 16 -22 42 -81 59 -130 17 -48 35 -101 41 -118 6 -16 14 -94
16 -172 l6 -143 32 0 c56 0 161 -39 227 -83 86 -58 215 -183 263 -256 22 -33
43 -61 47 -61 14 0 37 45 52 105 21 77 20 207 0 297 -19 84 -74 224 -113 288
-54 90 -56 99 -42 249 7 75 20 186 28 246 45 331 17 572 -90 780 -39 75 -150
225 -166 225 -4 0 -26 16 -49 36 -113 96 -330 173 -600 212 -102 14 -224 17
-942 17 -892 1 -886 1 -1075 57 -108 32 -312 138 -387 202 -142 121 -253 311
-281 481 -1 11 -6 -14 -9 -55z"/>
<path d="M3517 8543 c-3 -5 -21 -48 -41 -98 -21 -49 -45 -108 -55 -130 -28
-63 -43 -134 -92 -430 -20 -120 -21 -153 -15 -425 6 -291 16 -401 52 -555 9
-38 22 -83 29 -100 7 -16 20 -53 28 -82 24 -81 84 -231 124 -308 130 -253 373
-509 709 -747 60 -43 121 -88 135 -99 15 -12 49 -34 77 -50 86 -47 406 -251
440 -281 18 -15 37 -28 43 -28 19 0 232 -165 299 -231 105 -103 346 -413 481
-619 91 -139 196 -339 233 -445 98 -281 123 -361 137 -440 15 -86 18 -95 38
-95 17 0 105 104 239 281 208 276 420 817 478 1226 24 169 29 564 10 845 -9
131 -20 248 -25 260 -4 13 -11 46 -15 73 -9 67 -41 235 -60 313 -24 102 -128
224 -281 328 -104 71 -137 89 -214 116 -172 60 -319 72 -781 63 -529 -11 -610
-6 -810 42 -160 38 -272 96 -364 188 -71 71 -135 163 -151 216 -4 13 -15 38
-25 55 -45 78 -116 328 -130 456 -20 179 -23 243 -11 298 12 54 11 55 -16 75
-15 11 -41 33 -58 48 -16 16 -65 54 -108 85 -44 31 -124 90 -177 130 -96 70
-114 80 -123 65z"/>
<path d="M4409 8183 c112 -133 165 -206 194 -263 19 -36 40 -75 47 -87 l14
-22 30 21 c17 12 45 34 61 49 31 28 123 75 131 66 3 -3 -8 -31 -25 -62 -34
-63 -40 -119 -19 -186 12 -41 66 -112 99 -130 15 -7 89 -3 272 16 139 15 254
29 256 30 10 10 -98 151 -160 210 -184 173 -475 308 -823 380 -109 23 -114 22
-77 -22z"/>
<path d="M3438 5520 c-60 -11 -128 -29 -152 -40 -25 -11 -48 -20 -52 -20 -32
0 -344 -155 -344 -171 0 -3 19 -14 43 -23 70 -29 196 -93 306 -156 57 -33 109
-60 116 -60 7 0 27 -10 46 -23 19 -12 63 -40 99 -61 36 -22 97 -61 135 -88 39
-26 103 -70 144 -97 40 -27 88 -62 105 -78 17 -15 56 -49 86 -73 93 -76 109
-91 235 -215 67 -66 148 -155 179 -198 57 -77 149 -255 162 -312 7 -29 4 -27
-52 27 -32 31 -70 66 -84 78 -14 12 -43 38 -65 59 -22 20 -87 74 -145 120 -58
45 -112 88 -121 95 -85 69 -362 240 -479 297 -209 101 -466 194 -530 192 -8
-1 -46 3 -85 9 -83 11 -226 13 -287 3 -62 -9 -206 -54 -253 -77 -65 -33 -226
-149 -275 -198 -25 -25 -65 -72 -89 -105 -24 -33 -52 -68 -62 -77 -10 -10 -43
-63 -74 -118 -160 -285 -218 -496 -218 -790 -1 -247 28 -376 145 -650 147
-346 447 -733 814 -1050 44 -38 225 -183 254 -203 14 -10 57 -40 95 -68 68
-48 169 -115 305 -201 181 -114 566 -288 713 -322 28 -7 28 -6 -10 26 -21 18
-40 35 -43 38 -3 3 -41 35 -85 70 -44 36 -85 69 -91 75 -6 5 -42 37 -79 70
-127 111 -283 272 -390 399 -22 27 -51 60 -64 75 -71 80 -233 362 -217 379 3
2 33 -18 68 -45 163 -128 496 -353 748 -505 586 -353 1154 -599 1675 -723
1035 -247 1822 14 2321 770 33 50 75 117 93 149 34 58 34 59 10 53 -325 -86
-399 -97 -634 -97 -229 0 -410 31 -610 105 -55 20 -118 42 -141 50 -72 23
-196 91 -329 180 -71 48 -132 90 -135 94 -3 3 -21 18 -42 33 -20 15 -42 33
-50 40 -7 7 -43 38 -78 68 -36 30 -76 67 -90 81 -76 78 -147 157 -160 178 -8
13 -19 29 -25 35 -43 50 -99 122 -140 180 -26 38 -56 77 -66 87 -10 10 -25 32
-34 49 -20 39 -24 40 134 -63 215 -143 480 -262 658 -296 201 -40 318 -34 421
18 70 36 68 41 -43 107 -33 19 -80 50 -105 69 -25 19 -67 50 -95 69 -74 51
-246 229 -314 326 -33 47 -64 90 -70 97 -6 7 -11 14 -11 17 0 2 -18 32 -40 65
-80 120 -134 245 -205 476 -44 142 -58 175 -132 320 -148 289 -302 509 -537
768 -84 93 -280 275 -339 315 -23 16 -85 58 -137 93 -100 68 -260 160 -345
196 -78 34 -290 91 -395 106 -142 21 -335 19 -462 -3z m-289 -935 c30 -15 71
-86 71 -121 0 -24 27 -70 98 -161 l55 -73 54 0 c96 0 195 20 249 51 60 34 106
37 151 9 68 -41 82 -124 33 -199 -30 -48 -60 -180 -60 -265 0 -38 5 -45 68
-97 99 -82 128 -100 184 -114 60 -16 91 -43 105 -90 26 -84 -38 -175 -122
-175 -27 0 -98 -44 -192 -119 l-53 -41 0 -76 c0 -70 2 -77 29 -102 36 -34 44
-60 27 -93 -11 -22 -10 -30 6 -59 10 -19 18 -44 19 -55 0 -19 1 -19 9 1 24 59
104 72 151 25 32 -33 36 -56 15 -105 -29 -70 -136 -67 -166 3 l-13 32 -18 -31
c-11 -17 -30 -36 -44 -42 -32 -14 -32 -24 1 -32 30 -8 59 -67 49 -103 -10 -41
-50 -73 -90 -73 -45 0 -95 45 -95 85 0 30 26 85 40 85 24 0 7 16 -33 32 -25
10 -57 14 -79 11 -32 -4 -41 -1 -65 26 -26 27 -36 31 -108 37 l-80 6 -62 -74
c-72 -86 -98 -130 -108 -178 -15 -72 -62 -110 -135 -110 -70 0 -130 59 -130
128 0 29 -77 150 -138 216 -27 28 -28 28 -115 22 -109 -7 -171 -23 -215 -53
-121 -82 -260 69 -177 192 29 42 51 127 61 231 l6 70 -68 60 c-87 77 -139 110
-185 118 -44 8 -84 37 -105 78 -36 69 19 169 102 184 56 10 98 33 188 104 l79
63 -7 101 c-8 117 -20 171 -47 204 -43 56 -32 144 25 187 46 35 110 34 162 -2
46 -31 119 -50 229 -59 l80 -6 62 74 c75 91 99 131 108 183 10 59 63 105 121
105 25 0 58 -7 73 -15z m1096 -1208 c20 -29 19 -50 -6 -81 -35 -45 -102 -31
-114 24 -16 73 78 117 120 57z m-24 -166 c16 -16 29 -37 29 -46 0 -21 -19 -57
-39 -72 -45 -35 -121 7 -121 67 0 39 39 80 75 80 16 0 38 -12 56 -29z m-178
-32 c32 -43 2 -99 -54 -99 -60 0 -90 69 -48 111 28 28 76 22 102 -12z m-17
-161 c24 -26 23 -83 -1 -107 -49 -48 -135 -17 -135 48 0 44 10 62 42 76 37 15
71 9 94 -17z m195 19 c47 -36 51 -97 10 -138 -62 -62 -156 -24 -156 63 0 32 6
45 28 64 31 27 91 32 118 11z m18 -201 c84 -44 79 -161 -7 -202 -71 -33 -152
19 -152 98 0 50 13 74 53 98 38 24 68 25 106 6z m-615 -206 c43 -42 4 -130
-58 -130 -59 0 -95 66 -65 121 22 41 85 46 123 9z m425 6 c68 -36 68 -144 -1
-186 -82 -50 -173 5 -170 101 2 80 93 125 171 85z m-628 -17 c44 -23 40 -96
-6 -117 -67 -31 -127 56 -75 108 22 22 51 26 81 9z m897 -29 c92 -56 69 -211
-36 -240 -84 -23 -172 41 -172 124 0 49 31 103 70 123 37 19 101 16 138 -7z
m-692 -143 c20 -18 27 -33 28 -64 1 -47 -15 -70 -62 -90 -28 -12 -37 -11 -66
2 -61 29 -74 99 -27 146 37 37 88 39 127 6z m-206 -7 c21 -21 26 -69 10 -99
-14 -28 -61 -44 -93 -32 -37 14 -60 62 -47 98 6 15 18 34 27 41 26 19 80 15
103 -8z m426 1 c94 -57 52 -201 -60 -201 -76 0 -125 62 -105 133 20 75 100
108 165 68z m-631 -13 c73 -33 24 -149 -53 -122 -49 17 -56 99 -10 122 30 14
33 14 63 0z m892 -28 c45 -27 66 -64 66 -115 0 -51 -21 -88 -66 -115 -86 -53
-197 12 -197 115 0 103 111 168 197 115z m313 -81 c21 -12 43 -32 49 -45 6
-13 15 -24 21 -24 6 0 9 -22 7 -55 -2 -30 0 -55 5 -55 16 0 8 -31 -9 -37 -10
-3 -37 -23 -60 -44 -42 -39 -42 -39 -124 -37 -64 1 -82 5 -86 17 -3 9 -14 34
-26 56 -61 116 10 245 137 245 31 0 62 -8 86 -21z m170 -29 c0 -5 -9 -10 -20
-10 -11 0 -20 5 -20 10 0 6 9 10 20 10 11 0 20 -4 20 -10z m0 -40 c12 -8 12
-10 -3 -16 -22 -8 -50 3 -42 16 8 12 25 13 45 0z m15 -60 c0 -18 -43 -26 -59
-10 -8 8 -7 13 4 20 21 14 55 8 55 -10z m37 -63 c13 -21 -5 -37 -42 -37 -25 0
-40 5 -44 16 -9 23 -8 24 17 34 24 9 58 3 69 -13z m-102 -72 c19 -22 -5 -45
-47 -45 -35 0 -50 17 -39 45 3 9 18 15 39 15 19 0 40 -7 47 -15z m164 -17 c28
-45 -57 -78 -104 -40 -20 16 -21 21 -11 41 10 19 19 22 58 19 30 -2 50 -9 57
-20z m-534 -2 c0 -18 -30 -30 -43 -17 -5 5 -6 14 -3 20 10 16 46 13 46 -3z
m1007 -12 c3 -9 0 -20 -8 -25 -11 -7 -10 -11 6 -23 16 -12 17 -16 6 -30 -11
-14 -10 -19 10 -35 20 -16 22 -23 13 -38 -9 -15 -6 -21 17 -35 30 -18 37 -46
18 -65 -8 -8 -3 -13 20 -18 50 -11 79 -73 49 -103 -9 -9 -6 -12 16 -12 43 0
93 -36 106 -75 24 -74 -45 -129 -130 -104 -40 12 -80 49 -80 74 0 9 -12 7 -40
-7 -50 -25 -91 -17 -123 23 -21 27 -25 28 -36 15 -20 -24 -86 -21 -110 5 -18
20 -21 20 -42 5 -31 -21 -65 -20 -87 2 -18 18 -19 18 -42 0 -27 -22 -63 -23
-80 -3 -12 14 -15 13 -35 -5 -32 -30 -85 -24 -85 11 0 38 84 68 96 34 5 -12
10 -10 26 10 21 27 74 35 95 14 9 -9 16 -8 28 5 9 9 21 16 27 16 6 0 0 9 -13
19 -20 16 -22 23 -13 38 6 10 22 24 35 30 17 9 19 13 7 13 -24 0 -31 16 -18
40 11 21 64 29 74 11 4 -5 17 0 30 12 22 19 22 22 8 33 -14 10 -14 14 -2 29
11 13 23 15 52 11 23 -4 38 -2 38 4 0 5 7 10 17 10 14 0 15 2 1 18 -22 25 -11
42 27 42 18 0 36 -6 38 -12 4 -8 6 -7 6 3 1 9 9 20 19 24 16 6 16 7 -1 16 -14
8 -16 14 -6 25 16 19 58 18 66 -2z m-901 -49 c9 -23 -16 -46 -45 -43 -29 3
-41 35 -19 49 21 14 58 10 64 -6z m148 -8 c25 -41 -71 -74 -96 -34 -11 17 -10
24 8 42 21 21 73 16 88 -8z m-279 3 c9 -15 -14 -40 -37 -40 -23 0 -36 29 -17
41 19 12 46 11 54 -1z m429 4 c9 -4 21 -15 27 -25 25 -47 -55 -89 -106 -55
-61 40 6 108 79 80z m-544 -24 c0 -16 -41 -33 -52 -22 -6 6 -7 15 -4 21 9 14
56 15 56 1z m749 -5 c31 -15 41 -33 41 -70 0 -68 -156 -61 -173 7 -16 60 65
98 132 63z m-12 -231 c10 -27 -11 -49 -48 -49 -23 0 -35 5 -37 16 -7 39 71 69
85 33z m945 -116 c-9 -9 -15 -9 -24 0 -9 9 -7 12 12 12 19 0 21 -3 12 -12z
m18 -37 c0 -12 -29 -23 -41 -15 -18 10 -9 24 16 24 14 0 25 -4 25 -9z m-90
-11 c0 -5 -9 -10 -20 -10 -11 0 -20 5 -20 10 0 6 9 10 20 10 11 0 20 -4 20
-10z m0 -51 c0 -16 -31 -22 -43 -10 -9 9 -9 14 2 20 16 10 41 4 41 -10z m106
10 c13 -21 -29 -36 -55 -20 -19 12 -5 31 24 31 13 0 27 -5 31 -11z m-196 -19
c0 -5 -12 -10 -26 -10 -14 0 -23 4 -19 10 3 6 15 10 26 10 10 0 19 -4 19 -10z
m107 -47 c7 -20 -34 -35 -58 -23 -17 9 -18 14 -8 26 14 17 60 15 66 -3z m123
2 c17 -21 4 -35 -35 -35 -36 0 -50 12 -41 35 7 19 60 19 76 0z m-235 -4 c8
-15 -35 -35 -47 -23 -6 6 -7 15 -4 21 9 14 43 14 51 2z m-104 -16 c0 -5 -9
-11 -21 -13 -20 -3 -27 8 -13 22 10 9 34 3 34 -9z m109 -50 c23 -28 -24 -54
-57 -30 -15 11 -15 15 -4 29 17 20 45 21 61 1z m135 -15 c0 -22 -4 -25 -40
-25 -31 0 -41 4 -43 19 -5 24 15 37 53 34 25 -3 30 -7 30 -28z m159 -1 c19
-18 19 -19 1 -39 -23 -25 -66 -26 -96 -2 -26 22 -21 48 13 62 28 11 57 4 82
-21z m-409 1 c0 -10 -12 -16 -32 -18 -35 -3 -41 6 -21 26 17 17 53 11 53 -8z
m-110 -15 c0 -5 -10 -11 -22 -13 -16 -2 -23 2 -23 13 0 11 7 15 23 13 12 -2
22 -7 22 -13z m109 -57 c14 -23 -3 -40 -39 -40 -39 0 -50 23 -23 45 25 21 46
19 62 -5z m137 12 c34 -19 21 -49 -27 -64 -14 -4 -30 0 -45 13 -23 19 -24 19
-5 40 21 23 47 27 77 11z m-261 -26 c0 -18 -28 -33 -51 -27 -26 7 -24 32 4 42
27 10 47 4 47 -15z m432 9 c39 -35 6 -79 -56 -75 -38 3 -56 18 -56 48 0 42 75
61 112 27z m-557 -24 c0 -8 -12 -15 -27 -17 -31 -4 -37 12 -10 27 21 13 37 9
37 -10z m759 0 c18 -14 26 -30 26 -50 0 -25 -6 -33 -34 -44 -80 -34 -171 40
-119 97 23 26 92 24 127 -3z"/>
<path d="M3033 4561 c-34 -22 -53 -49 -53 -78 0 -10 -10 -37 -22 -60 -33 -62
-150 -202 -173 -208 -11 -3 -69 1 -130 10 -83 11 -126 23 -173 47 -84 42 -125
42 -163 0 -35 -40 -38 -90 -8 -139 27 -43 45 -125 54 -239 l7 -90 -70 -57
c-99 -79 -161 -117 -207 -124 -55 -9 -105 -59 -105 -105 0 -53 44 -107 89
-108 13 0 47 -13 75 -29 70 -40 206 -159 206 -179 0 -9 -7 -64 -15 -122 -12
-80 -24 -122 -50 -176 -19 -39 -35 -81 -35 -93 0 -13 15 -38 34 -57 42 -42 88
-45 149 -9 41 24 107 37 249 50 l67 6 66 -83 c70 -89 115 -168 115 -204 0 -34
46 -82 84 -90 57 -10 126 40 126 91 0 11 10 39 23 62 29 56 147 201 169 208
10 4 52 1 95 -5 77 -10 78 -10 96 15 37 49 120 22 120 -39 0 -29 10 -40 51
-55 l28 -11 -21 26 c-30 38 -28 87 5 113 34 27 74 27 102 1 15 -14 22 -16 22
-8 0 25 -31 58 -54 58 -28 0 -66 39 -66 69 0 12 12 33 26 47 24 25 25 29 18
114 l-6 88 53 42 c100 79 171 122 223 136 137 36 142 185 7 215 -48 11 -133
67 -219 144 l-53 48 7 66 c10 101 29 194 47 226 56 102 57 127 7 176 -36 37
-85 38 -143 5 -47 -27 -117 -42 -239 -51 l-83 -6 -55 71 c-79 104 -112 159
-117 201 -12 85 -94 131 -160 90z m25 -260 c7 -21 12 -53 12 -70 l0 -32 -102
3 c-71 2 -103 7 -103 15 0 17 146 122 171 123 6 0 16 -17 22 -39z m115 17 c56
-38 127 -100 127 -109 0 -5 -48 -9 -106 -9 l-107 0 6 43 c6 53 23 97 38 97 6
0 25 -10 42 -22z m336 -303 c86 -87 173 -177 194 -202 l37 -44 0 -140 c0 -76
-4 -139 -8 -139 -5 0 -14 11 -20 24 -7 17 -25 29 -51 36 -22 6 -63 29 -92 53
-103 84 -107 86 -69 39 53 -65 90 -124 84 -133 -10 -17 -60 -7 -126 25 -71 34
-79 35 -51 4 15 -17 15 -20 3 -28 -21 -13 -64 -12 -95 2 -21 10 -28 9 -35 -2
-14 -23 8 -42 32 -29 18 10 80 5 101 -8 4 -2 -2 -17 -13 -33 l-20 -28 70 35
c73 35 122 41 128 13 1 -9 -22 -46 -53 -83 -30 -37 -51 -67 -46 -67 5 0 11 4
13 8 8 20 132 102 164 108 21 4 41 16 51 30 31 48 36 28 30 -107 -6 -118 -9
-135 -29 -158 -37 -43 -238 -241 -312 -309 l-69 -63 -211 2 c-116 1 -242 5
-279 8 l-68 7 -105 104 c-58 58 -143 147 -189 197 l-85 93 0 140 c0 77 4 140
8 140 5 0 18 -13 30 -29 12 -17 34 -31 54 -35 18 -3 56 -25 83 -49 83 -71 93
-77 67 -42 -64 86 -83 117 -78 131 7 18 43 18 80 -1 15 -8 33 -15 38 -15 5 0
25 -12 44 -26 39 -30 44 -24 13 14 l-21 27 31 9 c21 6 45 5 68 -2 28 -9 39 -9
45 0 12 21 -11 39 -34 27 -24 -13 -98 -2 -98 15 0 6 6 20 14 31 12 17 2 15
-56 -13 -72 -34 -121 -39 -126 -11 -1 8 24 47 58 87 l60 72 -80 -60 c-45 -33
-96 -62 -116 -66 -21 -4 -41 -16 -51 -30 -31 -48 -36 -28 -29 108 6 125 8 134
34 163 51 57 207 212 292 289 l85 78 274 -5 274 -5 156 -157z m-769 147 c0 -4
-33 -41 -74 -81 -60 -60 -78 -72 -89 -63 -24 20 -70 113 -60 123 19 19 223 39
223 21z m843 -24 c27 -5 51 -16 54 -23 2 -8 -12 -40 -33 -71 l-38 -57 -73 78
c-40 43 -73 82 -73 88 0 10 79 3 163 -15z m-1093 -75 c14 -9 40 -27 59 -41
l34 -26 -79 -72 c-45 -41 -83 -69 -88 -64 -9 9 9 156 24 196 11 28 18 29 50 7z
m1229 -77 c13 -70 14 -146 3 -146 -14 0 -142 129 -142 144 0 15 112 78 122 68
3 -4 11 -34 17 -66z m-1349 -363 l0 -106 -42 7 c-56 9 -108 26 -108 35 0 7 49
75 104 143 17 20 34 34 38 32 4 -3 8 -53 8 -111z m1452 45 c43 -54 88 -120 88
-131 0 -12 -60 -35 -105 -39 l-40 -3 -3 65 c-4 74 5 150 17 150 5 0 24 -19 43
-42z m-1452 -237 c0 -88 -8 -141 -21 -141 -9 0 -99 117 -120 157 -7 13 -9 26
-6 30 7 6 107 30 135 32 9 1 12 -21 12 -78z m1488 34 c29 -9 52 -19 52 -24 0
-19 -124 -171 -139 -171 -7 0 -11 37 -11 105 0 121 -1 119 98 90z m-1371 -367
c35 -34 63 -69 63 -78 0 -23 -114 -88 -124 -71 -8 12 -26 133 -26 174 0 22 5
37 12 37 7 0 41 -28 75 -62z m1223 -57 c-7 -50 -18 -99 -25 -108 -12 -16 -17
-14 -69 20 -31 20 -56 43 -56 50 0 18 144 147 154 137 4 -4 2 -49 -4 -99z
m-1018 -164 c11 -16 18 -31 15 -34 -6 -5 -208 24 -216 32 -6 7 16 53 46 98
l26 38 54 -53 c30 -29 64 -66 75 -81z m891 67 c38 -64 39 -85 3 -95 -46 -13
-196 -23 -196 -13 0 12 142 154 155 154 6 0 23 -21 38 -46z m-544 -150 c9 -10
-14 -113 -28 -127 -5 -5 -22 -2 -38 7 -38 19 -143 104 -143 116 0 5 12 10 28
12 52 6 173 1 181 -8z m226 -11 c0 -17 -143 -123 -165 -123 -18 0 -40 63 -40
115 l0 26 103 -3 c73 -2 102 -7 102 -15z"/>
<path d="M2966 4272 c-41 -30 -46 -37 -30 -42 11 -4 39 -7 64 -6 48 1 48 1 35
64 -7 28 -10 28 -69 -16z"/>
<path d="M3122 4269 c-12 -49 -8 -51 74 -47 l59 3 -56 43 c-31 23 -58 42 -61
42 -3 0 -10 -18 -16 -41z"/>
<path d="M2861 4152 c-52 -3 -57 -6 -137 -79 -46 -42 -84 -82 -84 -88 0 -14
95 -106 127 -123 19 -10 28 -4 90 61 89 94 118 133 133 182 7 22 12 42 12 45
-2 6 -61 6 -141 2z"/>
<path d="M3047 4144 c-17 -10 -30 -28 -37 -54 -10 -36 -53 -99 -113 -162 -39
-41 -25 -34 45 23 68 55 104 76 114 66 10 -10 7 -57 -5 -80 -6 -12 -15 -33
-21 -47 -5 -14 -18 -36 -27 -50 l-18 -25 27 18 c46 29 51 24 46 -48 -6 -67 -1
-79 26 -69 12 5 13 11 6 24 -13 25 -13 97 1 106 6 3 16 1 22 -5 25 -25 24 -8
-4 57 -31 72 -34 89 -20 111 11 18 36 3 126 -73 33 -28 53 -42 44 -31 -87 107
-109 140 -123 183 -20 59 -48 77 -89 56z"/>
<path d="M3158 4103 c17 -53 62 -118 144 -208 l55 -59 39 28 c51 38 114 98
114 109 0 4 -36 43 -81 86 -88 86 -101 91 -229 91 l-57 0 15 -47z"/>
<path d="M2933 3910 c-46 -39 -83 -74 -83 -79 0 -5 20 -12 45 -15 41 -7 46 -5
75 26 16 18 33 44 36 58 4 14 10 30 14 35 4 6 10 18 13 28 12 33 -18 17 -100
-53z"/>
<path d="M3110 3961 c0 -11 4 -22 9 -25 4 -3 11 -18 14 -33 3 -16 19 -44 35
-63 27 -33 33 -35 76 -32 26 2 46 9 45 16 0 11 -150 148 -169 154 -5 2 -10 -5
-10 -17z"/>
<path d="M2510 3866 l-84 -86 -4 -102 c-3 -84 -2 -101 9 -90 7 6 24 12 37 12
27 0 117 62 201 138 64 58 64 65 -17 152 l-57 61 -85 -85z"/>
<path d="M3498 3882 c-24 -26 -53 -60 -63 -76 l-19 -29 90 -86 c88 -84 128
-111 187 -125 l28 -7 -2 98 c-2 87 -5 101 -27 128 -41 50 -133 145 -142 145
-4 0 -27 -21 -52 -48z"/>
<path d="M2710 3862 c0 -5 7 -15 15 -22 14 -12 20 -27 50 -130 10 -33 14 -38
14 -19 2 47 20 51 65 16 40 -32 41 -23 3 20 -26 30 -16 53 25 54 30 0 28 2
-17 14 -27 7 -51 18 -53 24 -2 6 -13 11 -24 11 -11 0 -33 9 -49 21 -16 11 -29
16 -29 11z"/>
<path d="M3400 3840 c-65 -35 -123 -59 -132 -54 -4 3 -8 0 -8 -5 0 -6 9 -11
20 -11 26 0 25 -20 -1 -54 -24 -31 -17 -34 18 -6 30 23 43 18 43 -15 0 -13 5
-27 10 -30 6 -4 10 6 10 22 0 16 7 38 15 49 8 10 15 26 15 34 0 9 11 32 25 53
14 20 24 37 23 37 -2 -1 -19 -9 -38 -20z"/>
<path d="M2934 3737 l-27 -24 19 -26 c10 -15 22 -27 25 -27 10 0 79 79 79 90
0 20 -68 10 -96 -13z"/>
<path d="M3110 3751 c0 -8 33 -54 57 -78 16 -18 27 -16 49 8 19 21 18 21 -14
50 -31 28 -92 41 -92 20z"/>
<path d="M2714 3708 c-101 -114 -134 -154 -134 -159 0 -8 40 0 55 11 6 4 21
10 35 14 14 3 40 19 58 35 32 27 33 31 27 75 -4 25 -10 46 -14 46 -4 0 -16
-10 -27 -22z"/>
<path d="M3387 3699 c-15 -55 -8 -83 27 -111 35 -28 99 -58 123 -58 17 0 -21
56 -95 139 -47 53 -49 54 -55 30z"/>
<path d="M3007 3654 l-28 -24 21 -31 c30 -42 46 -33 43 26 -2 27 -4 49 -5 51
-2 1 -16 -9 -31 -22z"/>
<path d="M3090 3626 c0 -31 4 -56 8 -56 5 0 19 11 32 25 27 28 22 46 -18 73
-22 14 -22 14 -22 -42z"/>
<path d="M2832 3637 c-25 -26 -31 -87 -9 -87 8 0 31 15 53 34 39 34 39 34 20
55 -24 27 -37 26 -64 -2z"/>
<path d="M3246 3636 l-29 -22 43 -37 c24 -20 50 -37 57 -37 23 0 14 53 -15 87
l-28 32 -28 -23z"/>
<path d="M2910 3565 c-13 -14 -22 -27 -19 -29 8 -7 97 -15 103 -9 6 7 -42 63
-54 63 -4 0 -17 -11 -30 -25z"/>
<path d="M3167 3570 c-43 -34 -35 -50 23 -50 28 0 50 3 50 8 0 4 -10 20 -23
35 l-22 29 -28 -22z"/>
<path d="M3034 3542 c-36 -25 -14 -92 31 -92 28 0 56 35 48 59 -12 33 -53 51
-79 33z"/>
<path d="M2580 3473 c0 -9 45 -67 104 -137 54 -64 64 -62 65 15 1 29 -5 40
-31 60 -43 32 -138 75 -138 62z"/>
<path d="M2890 3472 c0 -11 39 -52 49 -52 9 0 51 43 51 53 0 4 -22 7 -50 7
-27 0 -50 -4 -50 -8z"/>
<path d="M3136 3472 c-3 -5 8 -22 25 -38 l29 -28 33 32 32 32 -30 1 c-17 0
-42 3 -57 5 -14 2 -29 1 -32 -4z"/>
<path d="M2800 3436 c0 -13 10 -36 22 -52 12 -16 23 -31 25 -33 6 -8 53 23 53
35 0 16 -67 74 -85 74 -9 0 -15 -10 -15 -24z"/>
<path d="M3254 3416 l-39 -34 22 -21 c12 -12 26 -21 31 -21 17 0 49 45 55 78
9 44 -17 43 -69 -2z"/>
<path d="M3484 3436 c-17 -6 -50 -24 -73 -39 -43 -29 -43 -29 -36 -75 4 -26 9
-49 12 -52 5 -5 75 69 134 143 34 41 25 46 -37 23z"/>
<path d="M2413 3341 c6 -101 6 -103 46 -149 21 -26 58 -65 81 -87 l42 -40 64
69 c35 37 64 74 64 81 0 16 -169 179 -206 198 -16 8 -44 18 -63 22 l-34 7 6
-101z"/>
<path d="M2997 3402 c-26 -27 -26 -29 -10 -43 55 -46 53 -46 53 15 0 31 -4 56
-8 56 -5 0 -20 -13 -35 -28z"/>
<path d="M3090 3373 l0 -56 28 24 c15 13 29 25 30 26 6 3 -41 63 -50 63 -4 0
-8 -26 -8 -57z"/>
<path d="M3670 3407 c-19 -5 -57 -26 -85 -45 -67 -47 -175 -144 -175 -158 0
-16 109 -144 123 -144 8 0 50 38 95 84 l82 84 0 96 c0 53 -1 96 -2 95 -2 -1
-19 -6 -38 -12z"/>
<path d="M2920 3323 l-22 -28 31 -27 c30 -27 91 -40 91 -19 0 9 -68 101 -75
101 -2 0 -13 -12 -25 -27z"/>
<path d="M3136 3300 c-20 -22 -36 -45 -36 -50 0 -19 65 -10 95 14 29 23 29 24
12 50 -10 14 -21 26 -26 26 -5 0 -25 -18 -45 -40z"/>
<path d="M3341 3310 c-1 -14 -6 -32 -11 -40 -8 -12 -12 -12 -32 6 -60 53 -75
56 -33 8 33 -39 32 -53 -7 -61 l-32 -6 47 -14 c26 -7 47 -18 47 -24 0 -6 6 -9
14 -6 7 3 28 -3 45 -14 42 -26 44 -25 20 16 -11 19 -18 39 -15 44 3 5 1 11 -5
13 -6 2 -17 26 -24 53 -9 32 -14 41 -14 25z"/>
<path d="M2770 3302 c0 -10 -7 -27 -15 -38 -8 -10 -15 -26 -15 -34 0 -9 -12
-33 -27 -54 l-26 -40 35 22 c19 12 45 22 57 22 11 0 21 4 21 10 0 5 19 15 43
21 38 11 39 13 18 18 -34 9 -35 21 -6 55 38 44 34 47 -15 11 -36 -26 -50 -25
-50 6 0 10 -4 19 -10 19 -5 0 -10 -8 -10 -18z"/>
<path d="M3045 3280 c-3 -6 -3 -20 1 -33 9 -27 5 -79 -7 -91 -5 -6 -17 -2 -30
10 -12 10 -20 15 -18 9 3 -5 11 -23 18 -40 45 -98 49 -117 32 -144 -7 -11 -15
-10 -44 8 -19 12 -40 28 -47 37 -7 8 -27 25 -44 37 -28 20 -27 17 15 -38 50
-65 73 -105 82 -146 16 -63 92 -53 115 16 13 39 64 113 117 168 14 15 22 27
17 27 -5 0 -15 -7 -23 -16 -24 -29 -138 -105 -149 -99 -19 12 -10 64 23 128
31 60 31 64 11 50 -13 -8 -28 -12 -34 -8 -12 8 -13 85 0 105 6 9 5 17 -3 22
-16 10 -25 10 -32 -2z"/>
<path d="M2914 3105 c49 -47 92 -85 97 -85 14 0 10 25 -12 77 -33 77 -53 93
-118 93 l-56 -1 89 -84z"/>
<path d="M3153 3148 c-18 -22 -33 -48 -33 -57 0 -9 -7 -25 -15 -35 -18 -24
-19 -36 -2 -36 14 0 177 137 177 149 0 9 -49 21 -79 20 -9 0 -31 -18 -48 -41z"/>
<path d="M2692 3100 c-40 -34 -72 -64 -72 -68 0 -4 38 -45 84 -91 l85 -84 100
-5 100 -4 -15 47 c-8 27 -31 71 -52 99 -48 63 -142 166 -151 166 -4 0 -40 -27
-79 -60z"/>
<path d="M3283 3087 c-92 -99 -131 -150 -139 -182 -4 -17 -11 -35 -16 -42 -13
-16 9 -19 113 -13 l88 5 86 79 87 79 -54 54 c-29 30 -65 61 -80 69 -25 13 -28
12 -85 -49z"/>
<path d="M2573 4133 c-13 -2 -23 -9 -23 -14 0 -18 30 -69 41 -69 5 0 30 20 55
45 l45 45 -48 -1 c-27 -1 -58 -4 -70 -6z"/>
<path d="M3492 4103 c14 -16 34 -38 44 -50 10 -13 22 -23 25 -23 6 0 49 65 49
75 0 3 -118 25 -135 25 -5 0 3 -12 17 -27z"/>
<path d="M2451 3990 c-20 -95 -15 -100 48 -36 l43 43 -30 22 c-17 11 -35 21
-40 21 -6 0 -15 -23 -21 -50z"/>
<path d="M3637 3998 l-28 -21 42 -43 c47 -48 59 -54 54 -26 -2 9 -7 38 -10 65
-7 52 -16 57 -58 25z"/>
<path d="M2319 3653 c-67 -75 -66 -73 -44 -89 10 -8 31 -14 47 -14 28 0 28 0
28 65 0 36 -1 65 -3 65 -2 0 -14 -12 -28 -27z"/>
<path d="M3790 3593 c0 -40 3 -73 8 -73 4 0 24 5 44 10 l37 11 -20 32 c-10 18
-30 46 -44 62 l-25 30 0 -72z"/>
<path d="M2282 3469 l-33 -10 38 -54 c21 -30 41 -55 45 -55 7 0 16 99 10 118
-5 14 -14 14 -60 1z"/>
<path d="M3780 3390 c0 -33 4 -60 9 -60 12 0 81 83 81 97 0 12 -33 23 -67 23
-21 0 -23 -4 -23 -60z"/>
<path d="M2434 3051 c3 -35 8 -67 11 -70 7 -6 75 29 75 38 0 4 -21 27 -46 51
l-47 45 7 -64z"/>
<path d="M3631 3046 l-43 -43 30 -22 c50 -35 54 -31 67 62 3 26 2 47 -2 47 -5
0 -28 -20 -52 -44z"/>
<path d="M2543 2937 c-13 -18 -23 -36 -23 -39 0 -4 19 -9 43 -13 23 -3 55 -9
71 -12 l29 -5 -43 51 c-24 28 -46 51 -49 51 -3 0 -16 -15 -28 -33z"/>
<path d="M3487 2909 c-21 -23 -36 -44 -33 -46 7 -7 125 8 130 16 7 11 -32 71
-46 71 -7 0 -30 -19 -51 -41z"/>
<path d="M2890 2772 c0 -10 99 -86 105 -81 2 3 8 24 13 47 l10 42 -64 0 c-35
0 -64 -4 -64 -8z"/>
<path d="M3094 2768 c-7 -12 4 -78 14 -78 10 1 105 71 100 75 -9 9 -109 12
-114 3z"/>
<path d="M3770 2945 c0 -8 4 -15 10 -15 5 0 7 7 4 15 -4 8 -8 15 -10 15 -2 0
-4 -7 -4 -15z"/>
<path d="M3746 2794 c-20 -19 -20 -28 -1 -44 19 -16 55 -3 55 20 0 29 -35 44
-54 24z"/>
<path d="M3932 2798 c-7 -7 -12 -21 -12 -33 0 -12 5 -26 12 -33 7 -7 21 -12
33 -12 12 0 26 5 33 12 7 7 12 21 12 33 0 12 -5 26 -12 33 -7 7 -21 12 -33 12
-12 0 -26 -5 -33 -12z"/>
<path d="M3575 2770 c-4 -6 -4 -10 -1 -10 2 0 11 -3 20 -6 9 -3 16 -2 16 4 0
14 -28 23 -35 12z"/>
<path d="M3732 2608 c-19 -19 -14 -55 10 -72 19 -13 25 -14 43 -2 24 16 31 51
15 72 -15 17 -52 18 -68 2z"/>
<path d="M4177 3354 c-14 -15 -6 -34 14 -34 14 0 19 5 17 17 -3 18 -20 27 -31
17z"/>
<path d="M4144 3176 c-10 -26 4 -48 28 -44 17 2 23 10 23 28 0 18 -6 26 -23
28 -13 2 -25 -3 -28 -12z"/>
<path d="M3973 3154 c-7 -19 11 -39 26 -30 16 10 13 33 -4 40 -9 3 -18 -1 -22
-10z"/>
<path d="M3941 2981 c-13 -24 9 -57 33 -48 23 9 31 34 16 52 -17 20 -37 19
-49 -4z"/>
<path d="M4137 2992 c-22 -25 -21 -45 3 -67 17 -15 24 -16 45 -7 44 20 27 92
-23 92 -5 0 -16 -8 -25 -18z"/>
<path d="M4141 2773 c-49 -61 34 -138 89 -83 27 27 26 75 -2 94 -33 23 -64 19
-87 -11z"/>
<path d="M3542 2598 c-30 -30 9 -69 44 -43 15 11 17 17 8 32 -14 23 -36 27
-52 11z"/>
<path d="M3962 2600 c-30 -13 -46 -54 -31 -83 16 -29 28 -37 61 -37 34 0 58
24 58 59 0 50 -42 79 -88 61z"/>
<path d="M3366 2571 c-9 -15 23 -36 36 -23 5 5 7 15 4 21 -9 13 -33 14 -40 2z"/>
<path d="M4225 2562 c-37 -7 -65 -43 -65 -81 1 -85 98 -120 150 -54 50 64 -4
151 -85 135z"/>
<path d="M3542 2414 c-43 -30 -18 -93 33 -80 25 6 43 45 30 65 -14 24 -42 30
-63 15z"/>
<path d="M3339 2404 c-9 -11 -10 -20 -2 -32 14 -22 43 -22 57 1 9 15 7 21 -8
33 -25 18 -31 18 -47 -2z"/>
<path d="M3754 2402 c-13 -9 -34 -46 -34 -62 0 -18 47 -60 68 -60 51 0 81 79
44 113 -19 18 -59 22 -78 9z"/>
<path d="M3170 2370 c0 -11 6 -20 13 -20 19 0 27 10 20 26 -8 21 -33 17 -33
-6z"/>
<path d="M3985 2347 c-21 -17 -27 -32 -27 -61 0 -83 93 -118 146 -55 34 40 33
74 -3 110 -36 36 -79 38 -116 6z"/>
<path d="M4294 2290 c-57 -23 -87 -95 -65 -153 8 -19 15 -23 35 -20 26 5 36
-10 15 -23 -18 -11 12 -24 56 -24 46 0 79 19 99 58 30 60 9 129 -48 156 -37
18 -60 19 -92 6z m110 -109 c7 -11 -22 -23 -35 -15 -5 3 -7 10 -4 15 8 12 32
12 39 0z m-9 -61 c0 -9 -11 -16 -27 -18 -20 -2 -28 1 -28 12 0 8 6 17 13 19
21 9 42 2 42 -13z"/>
<path d="M5080 1930 c-23 -15 7 -32 31 -17 13 8 15 13 6 19 -15 10 -19 10 -37
-2z"/>
<path d="M5140 1890 c0 -5 7 -10 15 -10 8 0 15 5 15 10 0 6 -7 10 -15 10 -8 0
-15 -4 -15 -10z"/>
<path d="M4985 1854 c-17 -13 -18 -16 -5 -24 20 -13 26 -12 39 4 18 22 -9 38
-34 20z"/>
<path d="M5082 1861 c-10 -6 -7 -12 11 -24 21 -14 27 -14 37 -2 9 11 7 16 -9
24 -23 13 -22 13 -39 2z"/>
<path d="M5161 1816 c-14 -17 11 -41 34 -32 20 7 19 32 -1 40 -21 8 -20 8 -33
-8z"/>
<path d="M5040 1812 c0 -14 11 -21 26 -15 8 3 11 9 8 14 -7 11 -34 12 -34 1z"/>
<path d="M4940 1799 c0 -5 5 -7 10 -4 6 3 10 8 10 11 0 2 -4 4 -10 4 -5 0 -10
-5 -10 -11z"/>
<path d="M4890 1781 c0 -5 -9 -13 -21 -16 l-21 -7 22 -15 c20 -14 24 -14 41 3
18 19 18 20 -1 32 -11 7 -20 8 -20 3z"/>
<path d="M4982 1778 c-7 -10 -4 -18 13 -30 20 -15 24 -16 35 -2 11 12 10 17
-6 29 -24 18 -29 18 -42 3z"/>
<path d="M5107 1783 c-12 -11 -8 -23 7 -23 8 0 21 -9 29 -20 12 -18 16 -19 27
-5 10 12 9 16 -6 21 -11 4 -26 13 -35 21 -9 7 -19 10 -22 6z"/>
<path d="M5060 1725 c-6 -8 -9 -19 -5 -25 9 -15 41 -12 54 4 10 12 8 17 -8 25
-25 14 -26 14 -41 -4z"/>
<path d="M4937 1724 c-9 -10 2 -24 19 -24 8 0 14 7 14 15 0 15 -21 21 -33 9z"/>
<path d="M5199 1714 c-18 -22 1 -49 36 -49 35 0 54 27 36 49 -8 9 -24 16 -36
16 -12 0 -28 -7 -36 -16z"/>
<path d="M4820 1710 c0 -5 4 -10 9 -10 6 0 13 5 16 10 3 6 -1 10 -9 10 -9 0
-16 -4 -16 -10z"/>
<path d="M4870 1685 c-9 -11 -7 -18 9 -34 19 -19 20 -19 36 -2 14 17 14 19 -9
34 -21 14 -26 14 -36 2z"/>
<path d="M4992 1683 c-7 -3 2 -14 24 -29 33 -23 54 -24 54 -3 0 5 -6 9 -14 9
-7 0 -19 7 -26 15 -13 16 -17 17 -38 8z"/>
<path d="M5135 1670 c-3 -5 1 -10 9 -10 9 0 16 5 16 10 0 6 -4 10 -9 10 -6 0
-13 -4 -16 -10z"/>
<path d="M4953 1633 c-18 -7 -16 -40 2 -47 22 -8 45 4 45 24 0 14 -23 34 -33
29 -1 0 -8 -3 -14 -6z"/>
<path d="M4817 1623 c-13 -12 -7 -23 13 -23 11 0 20 7 20 15 0 15 -21 21 -33
8z"/>
<path d="M5098 1613 c-32 -38 14 -79 61 -53 25 13 27 33 5 54 -20 21 -47 20
-66 -1z"/>
<path d="M5216 1615 c4 -8 10 -12 15 -9 14 8 10 24 -6 24 -9 0 -12 -6 -9 -15z"/>
<path d="M4700 1610 c0 -5 5 -10 10 -10 6 0 10 5 10 10 0 6 -4 10 -10 10 -5 0
-10 -4 -10 -10z"/>
<path d="M5289 1596 c-53 -26 -24 -96 40 -98 37 -1 61 17 61 47 0 44 -57 73
-101 51z"/>
<path d="M8000 2711 c-136 -20 -180 -37 -420 -162 -58 -30 -139 -70 -180 -88
-41 -18 -84 -37 -95 -42 -60 -26 -233 -82 -325 -103 -286 -66 -562 -65 -743 4
-28 11 -52 18 -54 17 -1 -2 30 -21 70 -42 40 -21 88 -48 107 -60 30 -19 83
-44 215 -100 119 -52 213 -83 405 -135 204 -55 475 -71 640 -36 47 10 141 36
210 58 483 154 763 229 1025 275 120 20 399 24 459 6 81 -25 49 -3 -134 95
-120 64 -245 119 -435 191 -160 62 -253 88 -375 106 -20 3 -47 7 -60 10 -50
10 -257 13 -310 6z"/>
</g>
</svg>
